<?xml version="1.0" encoding="UTF-8" standalone="no"?>
<!-- Created with Inkscape (http://www.inkscape.org/) -->

<svg
   width="210mm"
   height="297mm"
   viewBox="0 0 210 297"
   version="1.1"
   id="svg1"
   inkscape:version="1.3 (0e150ed6c4, 2023-07-21)"
   sodipodi:docname="Deckplatte.svg"
   xml:space="preserve"
   xmlns:inkscape="http://www.inkscape.org/namespaces/inkscape"
   xmlns:sodipodi="http://sodipodi.sourceforge.net/DTD/sodipodi-0.dtd"
   xmlns="http://www.w3.org/2000/svg"
   xmlns:svg="http://www.w3.org/2000/svg"><sodipodi:namedview
     id="namedview1"
     pagecolor="#ffffff"
     bordercolor="#666666"
     borderopacity="1.0"
     inkscape:showpageshadow="2"
     inkscape:pageopacity="0.0"
     inkscape:pagecheckerboard="0"
     inkscape:deskcolor="#d1d1d1"
     inkscape:document-units="mm"
     inkscape:zoom="0.50205276"
     inkscape:cx="116.52162"
     inkscape:cy="684.19104"
     inkscape:window-width="1920"
     inkscape:window-height="1017"
     inkscape:window-x="-8"
     inkscape:window-y="-8"
     inkscape:window-maximized="1"
     inkscape:current-layer="layer1" /><defs
     id="defs1"><clipPath
       clipPathUnits="userSpaceOnUse"
       id="clipPath2234-0-9"><rect
         style="opacity:1;fill:#00ff00;fill-opacity:0;fill-rule:nonzero;stroke:#000000;stroke-width:0.1;stroke-linecap:round;stroke-linejoin:round;stroke-miterlimit:4;stroke-dasharray:none;stroke-dashoffset:0;stroke-opacity:1;paint-order:normal"
         id="rect2236-2-9"
         width="96.347984"
         height="270.19327"
         x="12.043502"
         y="19.999542" /></clipPath><clipPath
       clipPathUnits="userSpaceOnUse"
       id="clipPath2234-0-9-1"><rect
         style="opacity:1;fill:#00ff00;fill-opacity:0;fill-rule:nonzero;stroke:#000000;stroke-width:0.1;stroke-linecap:round;stroke-linejoin:round;stroke-miterlimit:4;stroke-dasharray:none;stroke-dashoffset:0;stroke-opacity:1;paint-order:normal"
         id="rect2236-2-9-1"
         width="96.347984"
         height="270.19327"
         x="12.043502"
         y="19.999542" /></clipPath></defs><g
     inkscape:label="Ebene 1"
     inkscape:groupmode="layer"
     id="layer1"><path
       style="fill:none;stroke:#000000;stroke-width:0.0499998mm"
       d="m 165.92075,253.26553 c 25.81254,-10.81408 38.06937,-20.96242 32.46462,-31.97672 -5.60475,-11.0143 -26.80908,-9.25929 -26.80908,-9.25929 V 141.79045 H 190.503 c 9.69533,-0.39664 8.30303,-11.86466 0,-11.67147 l -0.2103,-1e-5 H 171.47115 V 59.879864 h 0.10515 c 0,0 23.74651,-0.8436 28.82476,-11.07544 5.07824,-10.23183 -2.92319,-15.4603 -28.69426,-24.17086 -12.83587,-4.33849 -38.11833,-7.17474 -63.3995,-7.354756 -25.28116,0.176564 -50.56361,3.012814 -63.39948,7.351304 -25.771076,8.71056 -33.772506,13.93903 -28.694266,24.17086 5.07825,10.23184 28.824766,11.07544 28.824766,11.07544 h 0.10515 V 130.11552 H 26.321914 l -0.2103,1e-5 c -8.30303,-0.19319 -9.69533,11.27483 0,11.67147 H 45.03833 v 70.23907 c 0,0 -21.204336,-1.75501 -26.809086,9.25929 -5.60475,11.0143 6.65208,21.16264 32.464626,31.97672 12.16956,5.0984 34.21037,8.67639 57.61343,9.6703 23.40307,-0.99046 45.44388,-4.56845 57.61345,-9.66685 z"
       id="path1-7"
       sodipodi:nodetypes="ssccccccccsscssccccccccsscs" /></g></svg>
